<svg xmlns="http://www.w3.org/2000/svg" version="1.1" xmlns:xlink="http://www.w3.org/1999/xlink" xmlns:svgjs="http://svgjs.dev/svgjs" width="2000" height="358" viewBox="0 0 2000 358"><g transform="matrix(1,0,0,1,-1.2121212121212466,-2.415434726886758)"><svg viewBox="0 0 396 71" data-background-color="#030303" preserveAspectRatio="xMidYMid meet" height="358" width="2000" xmlns="http://www.w3.org/2000/svg" xmlns:xlink="http://www.w3.org/1999/xlink"><g id="tight-bounds" transform="matrix(1,0,0,1,0.2400000000000091,0.47903873075128445)"><svg viewBox="0 0 395.52 70.04192253849743" height="70.04192253849743" width="395.52"><g><svg viewBox="0 0 395.52 70.04192253849743" height="70.04192253849743" width="395.52"><g><svg viewBox="0 0 395.52 70.04192253849743" height="70.04192253849743" width="395.52"><g id="textblocktransform"><svg viewBox="0 0 395.52 70.04192253849743" height="70.04192253849743" width="395.52" id="textblock"><g><svg viewBox="0 0 395.52 70.04192253849743" height="70.04192253849743" width="395.52"><g transform="matrix(1,0,0,1,0,0)"><svg width="395.52" viewBox="1.55 -37.5 214.28 37.95" height="70.04192253849743" data-palette-color="#ffffff"><path d="M11-32.85L11-8.4Q11-6.25 11.75-5.48 12.5-4.7 13.85-4.7L13.85-4.7Q14.75-4.7 15.73-5 16.7-5.3 17.85-5.9L17.85-5.9 19.3-1.75Q17.75-0.8 16.1-0.28 14.45 0.25 12.75 0.25L12.75 0.25Q10.75 0.25 9.05-0.53 7.35-1.3 6.33-3 5.3-4.7 5.3-7.4L5.3-7.4 5.3-32.85 11-32.85ZM1.55-21.5L1.55-25.6 18.85-25.6 18.85-21.5 1.55-21.5ZM41.25-11.85L33.3-11.85Q30.5-11.85 29.15-11 27.8-10.15 27.8-8.2L27.8-8.2Q27.8-6.35 29.17-5.25 30.55-4.15 32.95-4.15L32.95-4.15Q35.1-4.15 36.8-4.9 38.5-5.65 39.5-6.93 40.5-8.2 40.55-9.8L40.55-9.8 41.65-4.95Q40.4-2.35 37.85-1.05 35.3 0.25 31.75 0.25L31.75 0.25Q28.9 0.25 26.8-0.85 24.7-1.95 23.55-3.83 22.4-5.7 22.4-8L22.4-8Q22.4-11.6 25.02-13.75 27.65-15.9 32.45-15.95L32.45-15.95 41.25-15.95 41.25-11.85ZM40.55 0L40.5-16.85Q40.5-19.45 38.9-20.9 37.3-22.35 34.15-22.35L34.15-22.35Q32.25-22.35 30.27-21.65 28.3-20.95 26.3-19.6L26.3-19.6 23.95-23.3Q25.8-24.45 27.45-25.2 29.1-25.95 30.97-26.35 32.85-26.75 35.4-26.75L35.4-26.75Q40.55-26.75 43.32-24.28 46.1-21.8 46.15-17.45L46.15-17.45 46.2 0 40.55 0ZM68.84-26.75L68.84-21.55Q66-21.7 63.92-20.58 61.85-19.45 60.72-17.45 59.6-15.45 59.6-12.85L59.6-12.85 58-13.05Q58-17.5 59.3-20.55 60.6-23.6 63.05-25.18 65.5-26.75 68.84-26.75L68.84-26.75ZM53.9 0L53.9-26.55 59.65-26.55 59.65 0 53.9 0ZM73.84 0L73.84-37.1 79.59-37.1 79.59 0 73.84 0ZM79.14-13.9L91.34-26.55 97.94-26.55 79.14-7.05 79.14-13.9ZM83.29-13.65L87.54-17.1 98.69 0 91.89 0 83.29-13.65ZM103.34 0L103.34-26.55 109.04-26.55 109.04 0 103.34 0ZM106.19-37.5L106.19-37.5Q107.64-37.5 108.59-36.55 109.54-35.6 109.54-34.15L109.54-34.15Q109.54-32.75 108.59-31.78 107.64-30.8 106.19-30.8L106.19-30.8Q104.79-30.8 103.81-31.78 102.84-32.75 102.84-34.15L102.84-34.15Q102.84-35.6 103.81-36.55 104.79-37.5 106.19-37.5ZM132.84-26.75L132.84-26.75Q136.64-26.75 139.49-25.05 142.34-23.35 143.94-20.3 145.54-17.25 145.54-13.2L145.54-13.2Q145.54-9.25 143.96-6.23 142.39-3.2 139.56-1.5 136.74 0.2 132.94 0.2L132.94 0.2Q129.29 0.2 126.71-1.4 124.14-3 122.79-6.03 121.44-9.05 121.44-13.2L121.44-13.2Q121.44-17.5 122.79-20.53 124.14-23.55 126.71-25.15 129.29-26.75 132.84-26.75ZM131.64-22.2L131.64-22.2Q129.29-22.2 127.44-21.05 125.59-19.9 124.56-17.93 123.54-15.95 123.54-13.35L123.54-13.35Q123.54-10.75 124.56-8.72 125.59-6.7 127.44-5.58 129.29-4.45 131.64-4.45L131.64-4.45Q134.04-4.45 135.86-5.6 137.69-6.75 138.71-8.75 139.74-10.75 139.74-13.35L139.74-13.35Q139.74-15.9 138.71-17.9 137.69-19.9 135.86-21.05 134.04-22.2 131.64-22.2ZM117.79 0L117.79-37.1 123.54-37.1 123.54 0 117.79 0ZM152.74-5.9L152.74-5.9Q154.09-5.9 154.99-5.03 155.89-4.15 155.89-2.75L155.89-2.75Q155.89-1.35 154.99-0.45 154.09 0.45 152.74 0.45L152.74 0.45Q151.39 0.45 150.49-0.45 149.59-1.35 149.59-2.75L149.59-2.75Q149.59-4.15 150.49-5.03 151.39-5.9 152.74-5.9ZM167.33-26.55L167.33-11.55Q167.33-8.45 168.98-6.68 170.63-4.9 173.53-4.9L173.53-4.9Q176.98-5 178.91-7.45 180.83-9.9 180.83-13.5L180.83-13.5 182.38-13.5Q182.38-8.6 181.03-5.6 179.68-2.6 177.21-1.23 174.73 0.15 171.33 0.2L171.33 0.2Q168.28 0.2 166.11-1.05 163.93-2.3 162.76-4.6 161.58-6.9 161.58-10.05L161.58-10.05 161.58-26.55 167.33-26.55ZM180.83 0L180.83-26.55 186.58-26.55 186.58 0 180.83 0ZM193.53-22.15L193.53-26.55 215.38-26.5 215.38-22.8 200.18-4.4 215.83-4.4 215.83 0.05 193.08 0 193.08-3.7 208.28-22.1 193.53-22.15Z" opacity="1" transform="matrix(1,0,0,1,0,0)" fill="#ffffff" class="wordmark-text-0" data-fill-palette-color="primary" id="text-0"></path></svg></g></svg></g></svg></g></svg></g></svg></g><defs></defs></svg><rect width="395.52" height="70.04192253849743" fill="none" stroke="none" visibility="hidden"></rect></g></svg></g></svg>